<?xml version="1.0" encoding="iso-8859-1"?>
<!-- Generator: Adobe Illustrator 16.0.0, SVG Export Plug-In . SVG Version: 6.00 Build 0)  -->
<!DOCTYPE svg PUBLIC "-//W3C//DTD SVG 1.1//EN" "http://www.w3.org/Graphics/SVG/1.1/DTD/svg11.dtd">
<svg version="1.1" id="Capa_1" xmlns="http://www.w3.org/2000/svg" xmlns:xlink="http://www.w3.org/1999/xlink" x="0px" y="0px"
	 width="382.047px" height="382.048px" viewBox="0 0 382.047 382.048" style="enable-background:new 0 0 382.047 382.048;"
	 xml:space="preserve">
<g>
	<g>
		<path d="M158.507,303.093c-6.12-6.12-12.24-11.628-18.972-17.136c0.612-23.868-0.612-48.348-1.836-72.216
			c-1.224-27.541-4.284-55.692-6.12-83.232c-1.224-19.584-0.612-40.392-3.672-59.364c5.508,0.612,11.016,0.612,16.524,1.836
			c5.508,1.224,11.016-4.284,7.344-9.792c-11.628-18.36-18.972-36.72-22.644-58.14c-1.224-6.732-12.24-6.732-13.464,0
			c-1.836,9.792-4.284,20.196-7.344,29.376c-1.224,4.896-3.06,9.792-4.896,14.076c-1.224,2.448-1.224,6.12-1.836,8.568
			c0,0.612,0,0.612-0.612,1.224c-0.612,0-1.224,0-1.836,0c-5.508-0.612-6.732,7.956-1.224,9.18
			c6.732,1.836,13.464,2.448,20.196,2.448c-6.732,42.228,4.284,91.8,6.732,134.028c1.224,25.704,2.448,50.796,1.224,76.5
			c-1.224,0.611-2.448,2.447-3.06,3.672c-3.672,15.3-15.912,22.032-27.54,31.212c-4.284,3.672,1.224,11.016,6.12,7.956
			c8.568-5.508,16.524-10.404,23.256-17.748c-0.612,4.284-0.612,8.568-1.224,12.852c-10.404,9.792-20.808,20.196-29.988,31.212
			c-1.836,2.448,0.612,6.732,3.672,4.284c7.956-6.12,16.524-11.628,23.868-17.748c-1.224,9.181-3.06,17.748-4.896,26.928
			c-1.836,7.345,9.18,10.404,11.628,3.061c2.448-9.18,4.896-18.972,6.12-28.764c2.448,3.06,4.896,6.119,7.344,9.18
			c3.06,4.284,7.344,12.852,14.076,12.24c1.836,0,4.284-1.225,4.896-3.672c1.224-6.732-5.508-12.24-9.792-17.748
			c-4.284-6.12-9.18-11.628-14.076-17.748c0.612-6.732,1.224-13.464,1.836-20.196c4.284,3.672,8.568,7.956,12.852,12.24
			c3.06,3.06,11.016,11.016,14.688,4.284C169.523,312.272,162.179,306.765,158.507,303.093z"/>
		<path d="M276.623,66.861c-5.508,7.344-12.852,14.076-20.195,19.584c-0.612-9.792-1.225-20.196-1.836-29.988
			c10.403-9.792,22.031-18.972,32.436-28.764c6.12-5.508-3.06-14.688-9.18-9.18c-7.956,7.344-16.524,14.688-24.48,22.032
			c-0.611-9.18-1.224-18.36-2.447-27.54c-0.612-6.12-9.792-6.732-10.404,0c0,8.568-0.612,16.524,0,25.092
			c-8.568-6.12-17.136-11.628-25.092-18.36c-4.284-3.672-9.792,1.836-6.12,6.12c9.792,9.792,20.808,18.36,31.212,27.54
			c0,9.792,0.611,19.584,1.224,29.376c-8.567-8.568-16.523-17.748-22.032-29.376c-1.836-4.284-9.18-1.224-7.955,3.06
			c6.731,17.136,17.747,31.212,30.6,44.676c0.612,18.36,1.836,36.72,1.836,55.692c0.612,47.736-4.284,93.636-7.956,140.76
			c-6.12,0-12.852,1.224-18.972,3.06c-4.896,1.225-4.284,9.792,1.224,9.181c1.224,0,2.448,0,3.672,0
			c-1.836,7.956,1.225,18.359,2.448,26.315c2.448,14.076,6.12,27.54,10.404,41.004c1.836,5.509,9.18,6.732,12.852,1.836
			c13.464-22.031,17.136-47.123,23.868-71.604c1.224-4.284-2.448-8.568-6.732-8.568c-5.508,0-11.628-0.611-17.136-0.611
			c11.016-41.616,10.404-86.904,9.792-129.744c0-22.032-0.612-44.676-1.224-66.708c11.628-7.956,22.644-17.136,30.6-28.764
			C292.535,66.249,281.519,60.741,276.623,66.861z"/>
	</g>
</g>
<g>
</g>
<g>
</g>
<g>
</g>
<g>
</g>
<g>
</g>
<g>
</g>
<g>
</g>
<g>
</g>
<g>
</g>
<g>
</g>
<g>
</g>
<g>
</g>
<g>
</g>
<g>
</g>
<g>
</g>
</svg>
